<svg aria-hidden="true" style="width:0;height:0;position:absolute;overflow:hidden" xmlns="http://www.w3.org/2000/svg"><defs><symbol id="icon-basket" viewBox="0 0 32 32"><path d="M19.664 5.6A3.996 3.996 0 0 0 16 3.205 4.006 4.006 0 0 0 12.336 5.6H1.6V8h28.8V5.6H19.664zM6.4 32h19.2l1.6-21.6H4.8L6.4 32zm18.208-19.2-1.232 16.8H17.2v-12h-2.4v12H8.624L7.392 12.8h17.216z"/></symbol><symbol id="icon-cart" viewBox="0 0 25 32"><path d="M24.193 31.049H.502a.527.527 0 0 1-.363-.146c-.047-.046-.083-.101-.107-.16s-.035-.123-.031-.187L1.129 8.328c.006-.121.062-.235.155-.318s.217-.13.346-.13h21.435c.129 0 .253.046.346.13s.149.197.155.318l1.128 22.227a.46.46 0 0 1-.138.347.508.508 0 0 1-.362.146v.001zm-23.166-.94h22.639l-1.08-21.288H2.107l-1.08 21.288z"/><path d="M17.766 10.703c-.133 0-.261-.05-.355-.138s-.147-.208-.147-.333V5.556c0-1.224-.518-2.398-1.441-3.263S13.649.941 12.345.941c-1.305 0-2.556.486-3.478 1.352S7.426 4.332 7.426 5.556v4.676c0 .125-.053.244-.147.333s-.222.138-.354.138c-.133 0-.26-.05-.354-.138s-.147-.208-.147-.333V5.556c0-1.474.624-2.887 1.734-3.929S10.775 0 12.345 0c1.57 0 3.077.585 4.187 1.627s1.734 2.455 1.734 3.929v4.676c0 .125-.053.244-.147.333s-.221.138-.354.138z"/></symbol><symbol id="icon-heart" viewBox="0 0 36 32"><path d="M35.14 9.156C34.627 3.849 30.623 0 25.613 0c-1.642.008-3.253.417-4.675 1.186s-2.607 1.872-3.438 3.2c-.788-1.323-1.936-2.427-3.327-3.197S11.197.008 9.582 0C4.574 0 .57 3.846.057 9.156a8.878 8.878 0 0 0 .299 3.479c.76 2.949 2.46 5.612 4.873 7.631l12.267 10.441 12.473-10.441c2.413-2.02 4.113-4.682 4.873-7.631a8.897 8.897 0 0 0 .299-3.479zm-1.617 3.188c-.696 2.697-2.251 5.131-4.459 6.978l-11.56 9.677-11.365-9.674c-2.21-1.847-3.768-4.282-4.465-6.981a7.756 7.756 0 0 1-.281-2.986l.011-.064c.44-4.649 3.88-8.024 8.18-8.024 1.585.022 3.126.488 4.425 1.339s2.298 2.047 2.867 3.435L17.5 7.43l.624-1.386c.609-1.4 1.645-2.599 2.978-3.448s2.904-1.31 4.515-1.324c4.3 0 7.733 3.378 8.188 8.084a7.738 7.738 0 0 1-.283 2.99l.001-.001z"/></symbol><symbol id="icon-user" viewBox="0 0 33 32"><path d="M16.652 0C12.236 0 8 1.646 4.877 4.576S0 11.48 0 15.624s1.754 8.118 4.877 11.048 7.358 4.576 11.775 4.576c.501 0 1.001-.021 1.499-.063.463-.039.921-.099 1.376-.173l.175-.029c4.081-.713 7.732-2.831 10.235-5.938s3.68-6.98 3.298-10.859c-.382-3.879-2.294-7.484-5.362-10.108S20.803-.001 16.652-.001zm-1.333 30.15h-.039c-.432-.036-.86-.09-1.285-.159l-.072-.011c-.415-.07-.826-.156-1.233-.258l-.099-.024c-.4-.101-.789-.218-1.176-.348l-.12-.04a14.066 14.066 0 0 1-1.119-.435l-.133-.057a14.58 14.58 0 0 1-1.059-.517l-.147-.078a15.31 15.31 0 0 1-.999-.597l-.148-.096c-.32-.214-.633-.44-.933-.677l-.091-.069v-4.391c.002-1.519.646-2.975 1.791-4.049s2.696-1.678 4.315-1.68h7.761c1.619.001 3.172.605 4.317 1.679s1.79 2.53 1.792 4.05v4.391l-.073.058c-.31.243-.629.473-.956.691l-.133.084c-.33.215-.668.418-1.015.608l-.133.069a16.44 16.44 0 0 1-1.067.524l-.127.053c-.369.16-.745.308-1.127.439l-.111.038c-.388.125-.783.25-1.181.35l-.096.023c-.408.101-.819.188-1.235.258l-.072.01c-.425.07-.855.125-1.287.16h-.039a17.108 17.108 0 0 1-2.673.004v-.001zm12.438-4.331v-3.425c-.003-1.796-.765-3.518-2.119-4.787s-3.191-1.982-5.105-1.982h-7.767c-1.913.002-3.747.716-5.1 1.985S5.552 20.6 5.55 22.395v3.425c-2.142-2.051-3.59-4.65-4.164-7.47s-.248-5.737.938-8.384S5.502 5.059 8.05 3.47c2.549-1.589 5.541-2.437 8.601-2.437s6.052.848 8.601 2.437c2.549 1.589 4.541 3.849 5.727 6.496s1.512 5.564.938 8.384c-.574 2.82-2.023 5.419-4.164 7.47h.004z"/><path d="M16.652 4.166c-1.098 0-2.171.305-3.084.878s-1.624 1.386-2.044 2.337-.53 1.999-.316 3.009c.214 1.01.743 1.938 1.519 2.667s1.765 1.224 2.842 1.425c1.077.201 2.193.098 3.207-.296s1.881-1.062 2.491-1.918a4.98 4.98 0 0 0 .935-2.893c0-1.381-.585-2.706-1.626-3.683s-2.453-1.525-3.925-1.525zm0 9.374c-.878 0-1.737-.244-2.467-.702s-1.299-1.108-1.635-1.87c-.336-.761-.424-1.599-.253-2.407s.594-1.55 1.215-2.133c.621-.583 1.412-.979 2.273-1.14s1.754-.078 2.565.237 1.505.849 1.993 1.534c.488.685.748 1.491.748 2.314 0 .547-.115 1.089-.338 1.594s-.55.965-.963 1.352c-.412.387-.902.694-1.44.903s-1.116.317-1.699.317z"/></symbol></defs></svg>