<svg aria-hidden="true" style="position: absolute; width: 0; height: 0; overflow: hidden;" version="1.1" xmlns="http://www.w3.org/2000/svg" xmlns:xlink="http://www.w3.org/1999/xlink">
<defs>
<symbol id="icon-basket" viewBox="0 0 32 32">
<path d="M19.664 5.6c-0.312-0.712-0.824-1.318-1.475-1.743s-1.411-0.652-2.189-0.652c-0.777 0-1.538 0.227-2.189 0.652s-1.163 1.031-1.475 1.743h-10.736v2.4h28.8v-2.4h-10.736z"></path>
<path d="M6.4 32h19.2l1.6-21.6h-22.4l1.6 21.6zM24.608 12.8l-1.232 16.8h-6.176v-12h-2.4v12h-6.176l-1.232-16.8h17.216z"></path>
</symbol>
<symbol id="icon-cart" viewBox="0 0 25 32">
<path d="M24.193 31.049h-23.691c-0.068-0-0.135-0.013-0.197-0.038s-0.119-0.062-0.166-0.108c-0.047-0.046-0.083-0.101-0.107-0.16s-0.035-0.123-0.031-0.187l1.128-22.228c0.006-0.121 0.062-0.235 0.155-0.318s0.217-0.13 0.346-0.13h21.435c0.129-0 0.253 0.046 0.346 0.13s0.149 0.197 0.155 0.318l1.128 22.227c0.003 0.064-0.008 0.127-0.031 0.187s-0.060 0.114-0.107 0.16-0.103 0.083-0.165 0.108c-0.062 0.025-0.129 0.038-0.197 0.038v0.001zM1.027 30.109h22.639l-1.080-21.288h-20.479l-1.080 21.288z"></path>
<path d="M17.766 10.703c-0.133 0-0.261-0.050-0.355-0.138s-0.147-0.208-0.147-0.333v-4.676c0-1.224-0.518-2.398-1.441-3.263s-2.174-1.352-3.478-1.352c-1.305 0-2.556 0.486-3.478 1.352s-1.441 2.039-1.441 3.263v4.676c0 0.125-0.053 0.244-0.147 0.333s-0.222 0.138-0.354 0.138c-0.133 0-0.26-0.050-0.354-0.138s-0.147-0.208-0.147-0.333v-4.676c0-1.474 0.624-2.887 1.734-3.929s2.617-1.627 4.187-1.627c1.57 0 3.077 0.585 4.187 1.627s1.734 2.455 1.734 3.929v4.676c0 0.125-0.053 0.244-0.147 0.333s-0.221 0.138-0.354 0.138z"></path>
</symbol>
<symbol id="icon-heart" viewBox="0 0 36 32">
<path d="M35.14 9.156c-0.513-5.307-4.517-9.156-9.527-9.156-1.642 0.008-3.253 0.417-4.675 1.186s-2.607 1.872-3.438 3.2c-0.788-1.323-1.936-2.427-3.327-3.197s-2.976-1.181-4.591-1.189c-5.008 0-9.012 3.846-9.525 9.156-0.132 1.167-0.030 2.347 0.299 3.479 0.76 2.949 2.46 5.612 4.873 7.631l12.267 10.441 12.473-10.441c2.413-2.020 4.113-4.682 4.873-7.631 0.329-1.132 0.43-2.312 0.299-3.479zM33.523 12.344c-0.696 2.697-2.251 5.131-4.459 6.978l-11.56 9.677-11.365-9.674c-2.21-1.847-3.768-4.282-4.465-6.981-0.287-0.971-0.383-1.983-0.281-2.986l0.011-0.064c0.44-4.649 3.88-8.024 8.18-8.024 1.585 0.022 3.126 0.488 4.425 1.339s2.298 2.047 2.867 3.435l0.624 1.386 0.624-1.386c0.609-1.4 1.645-2.599 2.978-3.448s2.904-1.31 4.515-1.324c4.3 0 7.733 3.378 8.188 8.084 0.102 1.004 0.006 2.018-0.283 2.99l0.001-0.001z"></path>
</symbol>
<symbol id="icon-user" viewBox="0 0 33 32">
<path d="M16.652 0c-4.416 0-8.652 1.646-11.775 4.576s-4.877 6.904-4.877 11.048c0 4.144 1.754 8.118 4.877 11.048s7.358 4.576 11.775 4.576c0.501 0 1.001-0.021 1.499-0.063 0.463-0.039 0.921-0.099 1.376-0.173l0.175-0.029c4.081-0.713 7.732-2.831 10.235-5.938s3.68-6.98 3.298-10.859c-0.382-3.879-2.294-7.484-5.362-10.108s-7.070-4.079-11.221-4.079zM15.319 30.15h-0.039c-0.432-0.036-0.86-0.090-1.285-0.159l-0.072-0.011c-0.415-0.070-0.826-0.156-1.233-0.258l-0.099-0.024c-0.4-0.101-0.789-0.218-1.176-0.348l-0.12-0.040c-0.379-0.125-0.752-0.278-1.119-0.435l-0.133-0.057c-0.36-0.156-0.712-0.332-1.059-0.517l-0.147-0.078c-0.34-0.186-0.673-0.385-0.999-0.597l-0.148-0.096c-0.32-0.214-0.633-0.44-0.933-0.677l-0.091-0.069v-4.391c0.002-1.519 0.646-2.975 1.791-4.049s2.696-1.678 4.315-1.68h7.761c1.619 0.001 3.172 0.605 4.317 1.679s1.79 2.53 1.792 4.050v4.391l-0.073 0.058c-0.31 0.243-0.629 0.473-0.956 0.691l-0.133 0.084c-0.33 0.215-0.668 0.418-1.015 0.608l-0.133 0.069c-0.351 0.188-0.708 0.364-1.067 0.524l-0.127 0.053c-0.369 0.16-0.745 0.308-1.127 0.439l-0.111 0.038c-0.388 0.125-0.783 0.25-1.181 0.35l-0.096 0.023c-0.408 0.101-0.819 0.188-1.235 0.258l-0.072 0.010c-0.425 0.070-0.855 0.125-1.287 0.16h-0.039c-0.444 0.036-0.888 0.055-1.333 0.055s-0.897-0.016-1.34-0.051v-0.001zM27.757 25.819v-3.425c-0.003-1.796-0.765-3.518-2.119-4.787s-3.191-1.982-5.105-1.982h-7.767c-1.913 0.002-3.747 0.716-5.1 1.985s-2.114 2.99-2.116 4.785v3.425c-2.142-2.051-3.59-4.65-4.164-7.47s-0.248-5.737 0.938-8.384 3.178-4.907 5.726-6.496c2.549-1.589 5.541-2.437 8.601-2.437s6.052 0.848 8.601 2.437c2.549 1.589 4.541 3.849 5.727 6.496s1.512 5.564 0.938 8.384c-0.574 2.82-2.023 5.419-4.164 7.47h0.004z"></path>
<path d="M16.652 4.166c-1.098 0-2.171 0.305-3.084 0.878s-1.624 1.386-2.044 2.337-0.53 1.999-0.316 3.009c0.214 1.010 0.743 1.938 1.519 2.667s1.765 1.224 2.842 1.425c1.077 0.201 2.193 0.098 3.207-0.296s1.881-1.062 2.491-1.918c0.61-0.856 0.935-1.863 0.935-2.893 0-1.381-0.585-2.706-1.626-3.683s-2.453-1.525-3.925-1.525zM16.652 13.54c-0.878 0-1.737-0.244-2.467-0.702s-1.299-1.108-1.635-1.87c-0.336-0.761-0.424-1.599-0.253-2.407s0.594-1.55 1.215-2.133c0.621-0.583 1.412-0.979 2.273-1.14s1.754-0.078 2.565 0.237 1.505 0.849 1.993 1.534c0.488 0.685 0.748 1.491 0.748 2.314 0 0.547-0.115 1.089-0.338 1.594s-0.55 0.965-0.963 1.352c-0.412 0.387-0.902 0.694-1.44 0.903s-1.116 0.317-1.699 0.317z"></path>
</symbol>
</defs>
</svg>
